<mxfile host="app.diagrams.net" agent="Mozilla/5.0 (X11; Linux x86_64) AppleWebKit/537.36 (KHTML, like Gecko) Chrome/135.0.0.0 Safari/537.36" version="26.2.14">
  <diagram id="R2lEEEUBdFMjLlhIrx00" name="Page-1">
    <mxGraphModel dx="2228" dy="1864" grid="1" gridSize="10" guides="1" tooltips="1" connect="1" arrows="1" fold="1" page="1" pageScale="1" pageWidth="850" pageHeight="1100" math="0" shadow="0" extFonts="Permanent Marker^https://fonts.googleapis.com/css?family=Permanent+Marker">
      <root>
        <mxCell id="0" />
        <mxCell id="1" parent="0" />
        <mxCell id="2" value="users&#xa;----&#xa;id: UUID (PK)&#xa;email: VARCHAR(255) UNIQUE NOT NULL&#xa;password_hash: TEXT NOT NULL&#xa;full_name: VARCHAR(255)&#xa;role: VARCHAR(20) DEFAULT &#39;user&#39;&#xa;created_at: TIMESTAMP DEFAULT CURRENT_TIMESTAMP" style="shape=rectangle;whiteSpace=wrap;html=1;" vertex="1" parent="1">
          <mxGeometry x="190" y="120" width="200" height="150" as="geometry" />
        </mxCell>
        <mxCell id="3" value="places&#xa;----&#xa;id: UUID (PK)&#xa;owner_id: UUID (FK users.id)&#xa;title: VARCHAR(255) NOT NULL&#xa;description: TEXT&#xa;address: TEXT&#xa;latitude: DECIMAL(9,6)&#xa;longitude: DECIMAL(9,6)&#xa;price: DECIMAL(10,2)&#xa;transport_info: TEXT&#xa;created_at: TIMESTAMP DEFAULT CURRENT_TIMESTAMP" style="shape=rectangle;whiteSpace=wrap;html=1;" vertex="1" parent="1">
          <mxGeometry x="510" y="-180" width="200" height="210" as="geometry" />
        </mxCell>
        <mxCell id="4" value="place_images&#xa;----&#xa;id: UUID (PK)&#xa;place_id: UUID (FK places.id)&#xa;url: TEXT NOT NULL&#xa;is_cover: BOOLEAN DEFAULT FALSE" style="shape=rectangle;whiteSpace=wrap;html=1;" vertex="1" parent="1">
          <mxGeometry x="510" y="260" width="200" height="100" as="geometry" />
        </mxCell>
        <mxCell id="5" value="categories&#xa;----&#xa;id: UUID (PK)&#xa;name: VARCHAR(255) UNIQUE NOT NULL&#xa;created_by: UUID (FK users.id)" style="shape=rectangle;whiteSpace=wrap;html=1;" vertex="1" parent="1">
          <mxGeometry x="750" y="280" width="200" height="100" as="geometry" />
        </mxCell>
        <mxCell id="6" value="place_categories&#xa;----&#xa;place_id: UUID (PK, FK places.id)&#xa;category_id: UUID (PK, FK categories.id)" style="shape=rectangle;whiteSpace=wrap;html=1;" vertex="1" parent="1">
          <mxGeometry x="750" y="120" width="200" height="90" as="geometry" />
        </mxCell>
        <mxCell id="7" value="tags&#xa;----&#xa;id: UUID (PK)&#xa;name: VARCHAR(100) UNIQUE NOT NULL" style="shape=rectangle;whiteSpace=wrap;html=1;" vertex="1" parent="1">
          <mxGeometry x="550" y="520" width="200" height="80" as="geometry" />
        </mxCell>
        <mxCell id="8" value="place_tags&#xa;----&#xa;place_id: UUID (PK, FK places.id)&#xa;tag_id: UUID (PK, FK tags.id)" style="shape=rectangle;whiteSpace=wrap;html=1;" vertex="1" parent="1">
          <mxGeometry x="890" y="400" width="200" height="80" as="geometry" />
        </mxCell>
        <mxCell id="9" value="reservations&#xa;----&#xa;id: UUID (PK)&#xa;user_id: UUID (FK users.id)&#xa;place_id: UUID (FK places.id)&#xa;start_date: TIMESTAMP NOT NULL&#xa;end_date: TIMESTAMP NOT NULL&#xa;status: VARCHAR(20) DEFAULT &#39;pending&#39;&#xa;created_at: TIMESTAMP DEFAULT CURRENT_TIMESTAMP" style="shape=rectangle;whiteSpace=wrap;html=1;" vertex="1" parent="1">
          <mxGeometry x="-200" y="270" width="200" height="190" as="geometry" />
        </mxCell>
        <mxCell id="10" value="reviews&#xa;----&#xa;id: UUID (PK)&#xa;user_id: UUID (FK users.id)&#xa;place_id: UUID (FK places.id)&#xa;rating: INTEGER CHECK (1-5)&#xa;comment: TEXT&#xa;created_at: TIMESTAMP DEFAULT CURRENT_TIMESTAMP" style="shape=rectangle;whiteSpace=wrap;html=1;" vertex="1" parent="1">
          <mxGeometry x="-30" y="-40" width="200" height="140" as="geometry" />
        </mxCell>
        <mxCell id="11" value="payments&#xa;----&#xa;id: UUID (PK)&#xa;reservation_id: UUID (FK reservations.id)&#xa;user_id: UUID (FK users.id)&#xa;amount: DECIMAL(10,2)&#xa;payment_method: VARCHAR(50)&#xa;status: VARCHAR(20)&#xa;paid_at: TIMESTAMP" style="shape=rectangle;whiteSpace=wrap;html=1;" vertex="1" parent="1">
          <mxGeometry x="300" y="420" width="200" height="160" as="geometry" />
        </mxCell>
        <mxCell id="12" value="1..n" style="edgeStyle=orthogonalEdgeStyle;html=1;" edge="1" parent="1" source="2" target="3">
          <mxGeometry relative="1" as="geometry" />
        </mxCell>
        <mxCell id="13" value="1..n" style="edgeStyle=orthogonalEdgeStyle;html=1;" edge="1" parent="1" source="3" target="4">
          <mxGeometry relative="1" as="geometry" />
        </mxCell>
        <mxCell id="14" value="1..n" style="edgeStyle=orthogonalEdgeStyle;html=1;" edge="1" parent="1" source="3" target="6">
          <mxGeometry relative="1" as="geometry" />
        </mxCell>
        <mxCell id="15" value="1..n" style="edgeStyle=orthogonalEdgeStyle;html=1;" edge="1" parent="1" source="5" target="6">
          <mxGeometry relative="1" as="geometry" />
        </mxCell>
        <mxCell id="16" value="1..n" style="edgeStyle=orthogonalEdgeStyle;html=1;" edge="1" parent="1" source="3" target="8">
          <mxGeometry relative="1" as="geometry" />
        </mxCell>
        <mxCell id="17" value="1..n" style="edgeStyle=orthogonalEdgeStyle;html=1;" edge="1" parent="1" source="7" target="8">
          <mxGeometry relative="1" as="geometry" />
        </mxCell>
        <mxCell id="18" value="1..n" style="edgeStyle=orthogonalEdgeStyle;html=1;" edge="1" parent="1" source="2" target="9">
          <mxGeometry relative="1" as="geometry" />
        </mxCell>
        <mxCell id="19" value="1..n" style="edgeStyle=orthogonalEdgeStyle;html=1;" edge="1" parent="1" source="3" target="9">
          <mxGeometry relative="1" as="geometry" />
        </mxCell>
        <mxCell id="20" value="1..n" style="edgeStyle=orthogonalEdgeStyle;html=1;" edge="1" parent="1" source="2" target="10">
          <mxGeometry relative="1" as="geometry" />
        </mxCell>
        <mxCell id="21" value="1..n" style="edgeStyle=orthogonalEdgeStyle;html=1;" edge="1" parent="1" source="3" target="10">
          <mxGeometry relative="1" as="geometry" />
        </mxCell>
        <mxCell id="22" value="1..1" style="edgeStyle=orthogonalEdgeStyle;html=1;" edge="1" parent="1" source="9" target="11">
          <mxGeometry relative="1" as="geometry" />
        </mxCell>
        <mxCell id="23" value="1..n" style="edgeStyle=orthogonalEdgeStyle;html=1;" edge="1" parent="1" source="2" target="11">
          <mxGeometry relative="1" as="geometry" />
        </mxCell>
      </root>
    </mxGraphModel>
  </diagram>
</mxfile>
